<?xml version="1.0" standalone="no"?>
<!DOCTYPE svg PUBLIC "-//W3C//DTD SVG 20010904//EN"
 "http://www.w3.org/TR/2001/REC-SVG-20010904/DTD/svg10.dtd">
<svg version="1.0" xmlns="http://www.w3.org/2000/svg"
 width="36pt" height="36pt" viewBox="0 0 582.000000 590.000000"
 preserveAspectRatio="xMidYMid meet">

<g transform="translate(0.000000,590.000000) scale(0.100000,-0.100000)"
fill="#000000" stroke="none">
<path d="M2655 5783 c-363 -32 -750 -149 -1067 -324 -228 -126 -431 -280 -623
-473 -230 -231 -390 -455 -535 -751 -112 -227 -210 -494 -161 -439 7 8 31 67
61 148 6 16 13 27 15 24 2 -2 -9 -44 -26 -93 -43 -127 -85 -296 -109 -430 -25
-146 -43 -415 -32 -475 9 -45 9 -45 16 35 27 296 43 412 77 565 36 158 133
459 145 447 2 -1 -16 -63 -40 -137 -54 -168 -100 -368 -121 -525 -16 -122 -32
-414 -22 -405 3 3 10 79 17 170 13 189 37 343 81 518 35 144 107 356 147 439
175 358 314 558 546 787 430 422 869 644 1486 752 148 26 165 26 396 21 222
-5 253 -8 415 -41 274 -55 482 -126 707 -240 323 -165 652 -431 841 -681 141
-187 222 -314 313 -493 89 -174 130 -287 187 -514 59 -234 74 -356 72 -613 -1
-313 -19 -497 -66 -691 -105 -438 -311 -830 -614 -1171 -45 -51 -78 -93 -73
-93 5 0 66 54 136 121 69 66 126 118 126 115 0 -12 -49 -84 -108 -157 -130
-161 -343 -347 -577 -502 -66 -43 -111 -76 -100 -73 37 12 -24 -30 -130 -89
-55 -30 -96 -55 -91 -55 19 0 237 112 340 175 341 207 666 528 876 865 92 147
243 490 303 690 40 131 84 323 103 450 19 127 30 559 15 588 -11 22 -3 44 12
35 9 -5 9 -3 2 8 -6 8 -8 34 -5 59 8 70 17 37 30 -110 14 -153 7 -340 -21
-575 -10 -88 -68 -391 -90 -470 -36 -134 -163 -445 -181 -445 -5 0 -6 -4 -3
-10 3 -5 1 -10 -5 -10 -6 0 -9 -4 -6 -8 3 -5 -20 -53 -51 -108 -398 -707
-1083 -1202 -1873 -1353 -174 -34 -266 -43 -475 -51 l-200 -7 160 -1 c247 -3
489 25 719 84 54 13 101 22 104 19 3 -3 3 -5 1 -5 -3 0 -76 -18 -162 -40 -171
-43 -367 -75 -517 -86 -163 -11 -139 -26 35 -20 251 7 542 66 801 161 251 93
581 280 791 449 393 318 697 743 870 1215 51 141 131 454 93 366 -13 -29 -12
-4 2 54 8 35 14 47 20 39 6 -9 8 -2 5 19 -2 18 0 34 4 35 3 2 15 57 25 123 24
159 24 524 1 711 -68 543 -222 940 -521 1338 -489 650 -1195 1052 -1996 1136
-88 9 -404 11 -495 3z m660 -53 c27 -7 27 -8 5 -8 -14 0 -38 4 -55 8 -27 7
-27 8 -5 8 14 0 39 -4 55 -8z m239 -50 c112 -28 332 -107 323 -116 -2 -3 -44
11 -94 30 -98 37 -197 67 -343 103 -54 13 -75 20 -48 17 26 -3 99 -18 162 -34z
m386 -140 c19 -11 31 -19 25 -19 -5 0 -26 8 -45 19 -19 11 -30 19 -25 19 6 0
26 -8 45 -19z m110 -50 c33 -17 60 -33 60 -35 0 -5 -119 52 -129 61 -13 12 16
1 69 -26z m170 -96 c0 -2 -13 2 -30 11 -16 9 -30 18 -30 21 0 2 14 -2 30 -11
17 -9 30 -18 30 -21z m187 -116 c115 -79 271 -209 343 -285 37 -39 42 -47 15
-23 -22 19 -42 38 -45 41 -48 55 -328 273 -415 325 -25 14 -45 28 -45 30 0 8
55 -25 147 -88z m803 -873 c76 -125 219 -439 206 -452 -2 -2 -20 38 -41 89
-41 101 -120 260 -185 376 -23 39 -39 72 -36 72 2 0 28 -38 56 -85z m377 -937
c-3 -8 -6 -5 -6 6 -1 11 2 17 5 13 3 -3 4 -12 1 -19z m13 -67 c0 -34 -10 -20
-16 21 -4 25 -2 29 5 18 6 -8 11 -26 11 -39z m-13 -1153 c-3 -8 -6 -5 -6 6 -1
11 2 17 5 13 3 -3 4 -12 1 -19z m-297 -698 c-6 -11 -13 -20 -16 -20 -2 0 0 9
6 20 6 11 13 20 16 20 2 0 0 -9 -6 -20z m-30 -50 c-6 -11 -13 -20 -16 -20 -2
0 0 9 6 20 6 11 13 20 16 20 2 0 0 -9 -6 -20z m-41 -67 c-174 -285 -498 -617
-787 -806 -53 -35 -108 -69 -122 -76 -21 -10 -22 -9 -6 1 63 43 263 191 326
242 174 140 401 387 544 594 59 85 85 111 45 45z"/>
<path d="M2008 4301 c-472 -185 -859 -339 -862 -342 -2 -2 193 -89 435 -193
l439 -190 0 -233 0 -233 -35 -70 c-72 -144 -117 -359 -118 -570 -1 -144 12
-215 59 -330 121 -298 453 -611 882 -830 l100 -52 119 61 c401 205 706 481
843 765 72 150 85 211 84 396 -1 234 -49 452 -131 587 l-33 56 2 229 3 230
428 176 c235 97 427 179 427 182 0 6 -1735 689 -1765 695 -11 2 -406 -148
-877 -334z m1640 -829 l2 -222 -742 2 -743 3 -3 190 c-2 105 0 205 3 223 l6
32 737 -2 737 -3 3 -223z m-19 -429 c45 -76 91 -207 116 -328 25 -124 31 -315
11 -399 -32 -133 -110 -271 -231 -404 -108 -120 -352 -302 -538 -402 l-77 -42
-78 43 c-238 130 -466 309 -583 456 -162 204 -213 368 -190 607 19 192 83 400
152 496 l29 40 675 0 674 0 40 -67z"/>
<path d="M2556 2670 c-127 -39 -143 -217 -26 -277 54 -28 82 -29 135 -3 78 38
109 142 63 210 -43 63 -109 90 -172 70z"/>
<path d="M3115 2665 c-80 -28 -120 -113 -90 -191 52 -136 226 -137 280 -2 47
118 -69 236 -190 193z"/>
<path d="M2610 1920 l0 -70 295 0 295 0 0 70 0 70 -295 0 -295 0 0 -70z"/>
<path d="M4460 3693 c0 -5 -43 -287 -94 -628 -52 -341 -93 -621 -91 -623 1 -1
94 -1 206 0 l205 3 -48 615 c-26 338 -47 621 -47 628 -1 13 -131 18 -131 5z"/>
<path d="M380 1806 c0 -10 60 -126 65 -126 3 0 -9 28 -26 63 -33 65 -39 75
-39 63z"/>
<path d="M526 1533 c142 -246 429 -579 624 -727 l65 -49 -65 59 c-260 234
-459 463 -595 687 -50 83 -75 108 -29 30z"/>
<path d="M4570 1029 c-28 -25 -34 -33 -15 -21 28 19 73 62 64 62 -2 0 -24 -18
-49 -41z"/>
<path d="M1405 729 c146 -106 343 -211 531 -285 119 -46 322 -108 389 -118 22
-3 -17 10 -87 29 -285 78 -547 195 -761 339 -142 95 -180 114 -72 35z"/>
<path d="M1575 773 c6 -6 33 -23 60 -38 28 -16 46 -24 40 -18 -5 6 -32 23 -60
38 -27 16 -45 24 -40 18z"/>
<path d="M1220 756 c0 -2 8 -10 18 -17 15 -13 16 -12 3 4 -13 16 -21 21 -21
13z"/>
<path d="M1265 719 c9 -13 127 -95 224 -153 239 -145 600 -298 758 -320 27 -4
21 -1 -17 10 -291 80 -592 219 -847 389 -67 45 -120 79 -118 74z"/>
<path d="M2898 393 c17 -2 47 -2 65 0 17 2 3 4 -33 4 -36 0 -50 -2 -32 -4z"/>
<path d="M2378 313 c6 -2 18 -2 25 0 6 3 1 5 -13 5 -14 0 -19 -2 -12 -5z"/>
<path d="M2433 303 c9 -2 23 -2 30 0 6 3 -1 5 -18 5 -16 0 -22 -2 -12 -5z"/>
<path d="M3538 303 c7 -3 16 -2 19 1 4 3 -2 6 -13 5 -11 0 -14 -3 -6 -6z"/>
<path d="M2493 293 c9 -2 25 -2 35 0 9 3 1 5 -18 5 -19 0 -27 -2 -17 -5z"/>
<path d="M3498 293 c7 -3 16 -2 19 1 4 3 -2 6 -13 5 -11 0 -14 -3 -6 -6z"/>
<path d="M2568 283 c7 -3 16 -2 19 1 4 3 -2 6 -13 5 -11 0 -14 -3 -6 -6z"/>
<path d="M3360 269 c-58 -13 -69 -17 -35 -14 55 6 172 33 140 33 -11 0 -58 -9
-105 -19z"/>
<path d="M3208 243 c12 -2 32 -2 45 0 12 2 2 4 -23 4 -25 0 -35 -2 -22 -4z"/>
<path d="M2298 233 c7 -3 16 -2 19 1 4 3 -2 6 -13 5 -11 0 -14 -3 -6 -6z"/>
<path d="M3098 233 c18 -2 45 -2 60 0 15 2 0 4 -33 4 -33 0 -45 -2 -27 -4z"/>
<path d="M2863 223 c37 -2 97 -2 135 0 37 2 6 3 -68 3 -74 0 -105 -1 -67 -3z"/>
<path d="M2623 193 c9 -2 23 -2 30 0 6 3 -1 5 -18 5 -16 0 -22 -2 -12 -5z"/>
</g>
</svg>
