<?xml version="1.0" standalone="no"?>
<!DOCTYPE svg PUBLIC "-//W3C//DTD SVG 20010904//EN"
 "http://www.w3.org/TR/2001/REC-SVG-20010904/DTD/svg10.dtd">
<svg version="1.0" xmlns="http://www.w3.org/2000/svg"
 width="440.000000pt" height="200.000000pt" viewBox="0 0 880.000000 390.000000"
 preserveAspectRatio="xMidYMid meet">

<g transform="translate(0.000000,390.000000) scale(0.100000,-0.100000)"
fill="#000000" stroke="none">
<path d="M4260 3709 c-14 -4 -42 -7 -62 -8 l-38 -1 0 -61 0 -62 -22 33 c-32
47 -72 62 -123 45 -85 -29 -135 -131 -143 -290 -6 -123 12 -198 70 -305 122
-223 137 -269 118 -370 -18 -97 -68 -118 -105 -45 -16 32 -20 61 -20 142 0
111 5 104 -55 87 -11 -3 -20 -8 -20 -12 0 -4 -11 -77 -24 -162 -13 -85 -23
-156 -21 -158 1 -1 20 1 41 6 33 6 40 12 42 35 4 34 15 35 30 2 43 -95 192
-43 257 90 50 102 37 189 -64 403 -33 70 -68 154 -77 187 -23 77 -25 256 -3
300 20 42 44 43 65 3 19 -37 25 -195 11 -301 l-7 -57 42 6 c24 4 45 8 47 10 6
6 92 467 89 480 -2 6 -13 7 -28 3z"/>
<path d="M4340 3510 c0 -72 4 -120 10 -120 5 0 28 36 50 80 l40 80 65 0 65 0
0 -72 c0 -40 -7 -226 -15 -413 -8 -187 -15 -346 -15 -354 0 -10 -12 -12 -54
-7 l-53 7 -7 -47 c-3 -26 -4 -49 -2 -51 2 -2 86 2 187 9 l184 13 0 25 c0 23
-5 25 -52 30 -28 3 -54 8 -58 11 -5 5 32 581 51 782 l6 67 64 0 64 0 35 -70
c19 -38 39 -70 44 -70 8 0 21 102 21 171 l0 36 -122 6 c-66 4 -208 7 -315 7
l-193 0 0 -120z"/>
<path d="M5773 3623 c-42 -4 -43 -5 -43 -40 l0 -36 45 5 c25 3 45 3 45 -1 0
-3 -16 -197 -35 -431 -19 -234 -35 -432 -35 -442 0 -13 -7 -15 -40 -11 -39 5
-40 5 -40 -23 0 -55 8 -57 126 -52 325 16 473 169 506 523 26 278 -39 444
-195 502 -30 11 -236 15 -334 6z m288 -76 c61 -41 74 -94 74 -302 0 -198 -15
-294 -63 -414 -29 -73 -115 -171 -151 -171 -19 0 -20 5 -15 78 7 117 34 730
34 785 l0 47 44 0 c28 0 55 -8 77 -23z"/>
<path d="M5010 3565 c0 -42 2 -45 28 -45 l27 0 -8 -117 c-14 -210 -13 -592 2
-658 36 -159 120 -227 241 -195 149 40 210 239 227 732 l6 188 33 0 c32 0 33
1 27 33 -3 17 -6 33 -7 33 -1 1 -57 5 -125 9 l-124 7 6 -24 c4 -12 7 -33 7
-45 0 -21 5 -23 50 -23 l50 0 0 -37 c-1 -123 -22 -462 -35 -547 -17 -115 -52
-201 -89 -217 -64 -29 -101 21 -118 160 -9 84 -5 468 8 634 7 76 7 77 35 77
31 0 59 23 59 49 0 16 -14 19 -112 24 -62 4 -130 7 -150 7 l-38 0 0 -45z"/>
<path d="M6320 3567 c0 -46 0 -46 37 -49 l38 -3 86 -250 87 -250 -7 -155 -6
-155 -50 0 -50 0 -3 -44 -3 -44 103 7 c252 16 258 17 258 41 0 20 -7 24 -52
29 l-53 7 7 167 7 167 88 240 89 240 47 3 c44 3 47 5 47 31 0 27 -2 28 -67 34
-38 4 -89 7 -115 7 -41 0 -48 -3 -48 -19 0 -35 12 -51 37 -51 20 0 24 -4 18
-17 -4 -10 -36 -97 -72 -193 -70 -186 -70 -186 -79 -178 -7 7 -124 379 -124
396 0 7 13 12 30 12 24 0 33 6 41 26 5 15 8 28 7 29 -2 2 -69 6 -150 10 l-148
7 0 -45z"/>
<path d="M1915 3194 c-250 -45 -464 -156 -651 -337 -142 -136 -238 -282 -314
-472 -32 -79 -37 -100 -19 -75 8 12 9 9 5 -10 -33 -132 -47 -211 -51 -300 l-5
-105 15 112 c14 113 52 293 62 293 2 0 2 -15 -1 -32 -4 -18 6 3 22 47 108 304
311 542 587 686 317 167 645 188 980 63 384 -144 680 -504 750 -913 22 -125
24 -192 14 -326 -22 -275 -127 -529 -297 -717 -46 -51 -28 -48 26 4 34 33 41
37 32 18 -21 -41 -200 -212 -276 -262 -90 -60 -119 -93 -48 -54 80 43 215 148
281 220 86 91 147 180 204 296 100 202 140 366 144 578 2 79 7 147 11 150 4 4
4 -1 1 -10 -4 -10 -3 -18 1 -18 22 0 5 -263 -28 -412 -37 -170 -139 -382 -247
-515 -51 -62 -56 -78 -11 -37 18 17 11 5 -17 -28 -27 -32 -51 -58 -53 -58 -3
0 2 8 10 18 42 49 24 40 -44 -22 -42 -38 -75 -73 -73 -76 3 -4 -5 -16 -18 -26
l-22 -19 19 23 c11 12 16 22 12 22 -12 0 -77 -52 -72 -58 3 -3 13 1 23 9 11 9
14 10 9 2 -4 -7 -16 -18 -28 -24 -15 -8 -19 -8 -14 0 11 17 -1 13 -42 -13
-101 -63 -271 -134 -369 -152 -32 -6 -35 -8 -18 -16 13 -5 4 -6 -25 -3 -34 4
-40 3 -25 -5 15 -7 6 -9 -35 -6 -38 4 -46 2 -25 -3 25 -6 15 -9 -50 -15 -101
-9 -115 -14 -45 -15 30 -1 96 6 145 14 408 66 771 338 950 710 41 85 83 209
89 262 3 21 12 67 20 103 18 78 21 302 5 416 -40 289 -165 532 -379 738 -196
188 -426 306 -684 351 -110 19 -322 18 -431 -1z m1245 -2068 c0 -2 -8 -10 -17
-17 -16 -13 -17 -12 -4 4 13 16 21 21 21 13z m-161 -178 c-2 -2 -17 -14 -34
-28 l-30 -25 29 32 c16 18 32 31 34 28 3 -3 3 -6 1 -7z"/>
<path d="M1731 2535 c-217 -86 -396 -157 -398 -159 -2 -2 86 -42 194 -89 l198
-86 3 -110 c2 -93 0 -117 -17 -148 -57 -114 -66 -311 -18 -416 62 -136 218
-281 404 -375 l42 -22 68 36 c172 91 308 216 369 339 33 67 38 88 42 165 5 98
-15 210 -48 276 -16 31 -20 59 -20 149 l0 110 195 80 c134 54 191 82 181 87
-11 6 -714 285 -791 314 -5 2 -187 -66 -404 -151z m749 -385 l0 -100 -340 0
-340 0 0 100 0 100 340 0 340 0 0 -100z m3 -222 c57 -124 68 -277 26 -368 -46
-99 -164 -215 -296 -290 l-73 -42 -65 36 c-145 82 -258 193 -306 302 -38 85
-26 246 28 362 l24 52 319 0 319 0 24 -52z"/>
<path d="M1947 1762 c-33 -37 -14 -104 33 -113 33 -7 68 11 80 42 11 27 11 33
-7 57 -26 34 -81 42 -106 14z"/>
<path d="M2207 1762 c-33 -37 -14 -104 33 -113 56 -11 104 45 79 93 -6 12 -17
26 -23 30 -21 14 -73 8 -89 -10z"/>
<path d="M2000 1435 l0 -35 135 0 135 0 0 35 0 35 -135 0 -135 0 0 -35z"/>
<path d="M6320 2333 c-102 -8 -205 -16 -229 -19 l-44 -6 7 -96 c4 -53 11 -101
16 -108 7 -7 23 -9 49 -4 69 13 69 60 10 -545 -51 -535 -69 -725 -78 -842 -4
-51 -10 -95 -14 -99 -11 -11 -25 36 -42 136 -9 52 -21 120 -26 150 -6 30 -14
81 -19 113 -6 31 -15 85 -20 120 -6 34 -15 89 -20 122 -5 33 -14 89 -20 125
-25 158 -72 512 -85 642 -4 37 -10 70 -13 72 -4 2 -56 -1 -117 -6 -60 -5 -180
-12 -265 -16 l-155 -7 3 -90 c2 -49 6 -92 8 -95 3 -2 36 -6 74 -8 41 -3 71 -9
73 -16 3 -7 1 -34 -3 -62 -4 -27 -13 -98 -19 -159 -7 -60 -16 -141 -21 -180
-5 -38 -14 -115 -20 -170 -13 -122 -27 -238 -40 -347 -5 -46 -19 -164 -30
-263 -39 -347 -39 -344 -69 -351 -93 -21 -86 -15 -89 -74 -2 -29 0 -56 5 -60
9 -8 374 23 390 33 10 6 1 107 -12 127 -4 6 -23 10 -44 8 l-36 -3 2 50 c2 47
11 172 33 445 5 63 14 176 20 250 6 74 15 187 20 250 5 63 14 176 20 250 15
200 21 253 30 243 4 -4 13 -60 19 -123 45 -438 222 -1528 260 -1598 9 -16 20
-17 178 -4 92 7 170 18 174 23 3 6 7 30 8 56 0 25 24 300 51 612 28 311 59
670 70 796 11 127 22 248 25 270 2 22 7 81 10 130 4 50 8 97 11 105 3 11 30
20 86 30 l83 15 3 91 c2 68 -1 93 -10 96 -7 2 -96 -2 -198 -9z"/>
<path d="M6843 2339 c-40 -5 -94 -12 -120 -16 l-48 -9 1 -69 c5 -403 2 -1146
-6 -1285 -5 -96 -8 -176 -6 -177 1 -2 28 3 59 9 l56 12 11 51 c38 192 134 863
170 1200 6 55 15 136 20 180 15 119 16 115 -27 114 -21 -1 -70 -5 -110 -10z"/>
<path d="M2812 1973 c-23 -153 -42 -281 -42 -285 0 -5 42 -8 94 -8 l95 0 -6
53 c-2 28 -12 156 -21 282 l-17 230 -31 3 -30 3 -42 -278z"/>
<path d="M941 2214 c0 -11 3 -14 6 -6 3 7 2 16 -1 19 -3 4 -6 -2 -5 -13z"/>
<path d="M4396 2220 c-111 -19 -244 -114 -323 -230 -199 -293 -305 -835 -248
-1270 53 -398 189 -579 452 -597 247 -17 432 153 549 502 19 57 39 125 44 152
44 216 44 216 44 493 1 273 -1 303 -40 483 -21 97 -40 152 -82 237 -85 171
-234 257 -396 230z m102 -144 c35 -31 58 -82 77 -166 23 -105 31 -490 16 -745
-38 -626 -131 -914 -291 -896 -8 1 -29 17 -47 36 -39 41 -67 132 -82 267 -22
190 -9 703 24 938 52 377 115 549 215 589 31 12 58 5 88 -23z"/>
<path d="M932 2170 c0 -14 2 -19 5 -12 2 6 2 18 0 25 -3 6 -5 1 -5 -13z"/>
<path d="M922 2115 c0 -16 2 -22 5 -12 2 9 2 23 0 30 -3 6 -5 -1 -5 -18z"/>
<path d="M913 2035 c0 -22 2 -30 4 -17 2 12 2 30 0 40 -3 9 -5 -1 -4 -23z"/>
<path d="M2138 623 c6 -2 18 -2 25 0 6 3 1 5 -13 5 -14 0 -19 -2 -12 -5z"/>
<path d="M2193 623 c9 -2 23 -2 30 0 6 3 -1 5 -18 5 -16 0 -22 -2 -12 -5z"/>
<path d="M6644 571 c-93 -57 -145 -214 -110 -334 71 -243 317 -134 316 141 0
90 -21 144 -69 185 -39 33 -92 36 -137 8z"/>
</g>
</svg>
